<svg width="45" height="248" viewBox="0 0 45 248" fill="none" xmlns="http://www.w3.org/2000/svg">
<rect x="44.6364" y="189.744" width="0.878205" height="44.1558" transform="rotate(90 44.6364 189.744)" fill="#838383"/>
<rect x="44.6364" y="167.788" width="0.878205" height="44.1558" transform="rotate(90 44.6364 167.788)" fill="#838383"/>
<rect x="44.6364" y="145.833" width="0.878205" height="44.1558" transform="rotate(90 44.6364 145.833)" fill="#838383"/>
<rect x="44.6364" y="123.878" width="1.31731" height="44.1558" transform="rotate(90 44.6364 123.878)" fill="white"/>
<rect x="44.6364" y="101.923" width="0.878205" height="44.1558" transform="rotate(90 44.6364 101.923)" fill="#838383"/>
<rect x="44.6364" y="79.9679" width="0.878205" height="44.1558" transform="rotate(90 44.6364 79.9679)" fill="#838383"/>
<rect x="44.6364" y="58.0128" width="0.878205" height="44.1558" transform="rotate(90 44.6364 58.0128)" fill="#838383"/>
<rect x="44.6364" y="36.0576" width="0.878205" height="44.1558" transform="rotate(90 44.6364 36.0576)" fill="#838383"/>
<rect x="44.6364" y="14.1025" width="1.31731" height="44.1558" transform="rotate(90 44.6364 14.1025)" fill="white"/>
<rect x="44.6364" y="211.699" width="0.878205" height="44.1558" transform="rotate(90 44.6364 211.699)" fill="#838383"/>
<rect x="44.6364" y="233.654" width="1.31731" height="44.1558" transform="rotate(90 44.6364 233.654)" fill="white"/>
<rect x="18.1428" y="0.929443" width="8.83117" height="246.776" fill="black"/>
</svg>
